<svg width="512" height="512" viewBox="0 0 512 512" fill="none" xmlns="http://www.w3.org/2000/svg">
  <rect width="512" height="512" rx="128" fill="#0F172A"/>
  <path d="M128 294C128 197 204 121 301 121C345 121 384 136 414 164L359 226C344 212 325 204 303 204C254 204 217 241 217 294C217 348 257 384 307 384C339 384 363 371 375 351H298V280H464C466 290 467 300 467 311C467 419 395 464 307 464C207 464 128 390 128 294Z" fill="#14B8A6"/>
  <path d="M83 141L174 48H296L208 141L301 232H179L83 141Z" fill="#F59E0B"/>
</svg>
