<svg width="192" height="192" viewBox="0 0 192 192" fill="none" xmlns="http://www.w3.org/2000/svg">
  <rect width="192" height="192" rx="48" fill="#0F172A"/>
  <path d="M48 110C48 73.55 76.55 45 113 45C129.5 45 144 50.8 155.3 61.1L134.8 84.2C129.2 79.1 122.1 76.2 113.7 76.2C95.4 76.2 81.5 90.2 81.5 110C81.5 130.3 96.5 143.9 115.1 143.9C127.1 143.9 135.9 138.9 140.5 131.4H111.5V104.7H174C174.7 108.4 175 112.1 175 116.4C175 156.9 147.8 174 115.1 174C77.5 174 48 146.1 48 110Z" fill="#14B8A6"/>
  <path d="M31 53L65 18H111L78 53L113 87H67L31 53Z" fill="#F59E0B"/>
</svg>
